<svg width="132" height="45" viewBox="0 0 132 45" fill="none" xmlns="http://www.w3.org/2000/svg">
<path d="M120.929 34.6204C117.023 34.6204 115.597 32.3574 115.597 28.6684V21.4764H113.396L113.458 18.1904H114.605C116.217 18.0974 116.868 17.5084 117.054 15.9894L117.333 14.3154H119.906V17.9734H123.936V21.6004H119.906V28.4204C119.906 30.0944 120.836 30.5904 122.014 30.5904C122.696 30.5904 123.471 30.4044 124.029 30.0324V34.1554C122.758 34.5274 121.735 34.6204 120.929 34.6204Z" fill="white"/>
<path d="M109.092 15.8964C107.325 15.8964 106.395 15.1524 106.395 13.7574C106.395 12.3314 107.325 11.5874 109.092 11.5874C110.859 11.5874 111.789 12.3624 111.789 13.7574C111.789 15.1214 110.828 15.8964 109.092 15.8964ZM106.86 34.2484V17.9734H111.324V34.2484H106.86Z" fill="white"/>
<path d="M87.8184 39.2084V25.5064V17.9734H91.6004L91.5694 22.6854L92.0034 22.7164C92.6234 19.2754 94.4524 17.5394 97.3974 17.5394C101.551 17.5394 104 20.7634 104 26.1574C104 31.3964 101.675 34.6824 97.5834 34.6824C94.5454 34.6824 92.8714 32.8224 92.0964 29.5674H91.6314C91.9414 31.3654 92.2824 33.2564 92.2824 34.8374V39.2084H87.8184ZM96.0024 31.0554C98.1724 31.0554 99.3814 29.0094 99.3814 26.1884C99.3814 23.2744 98.0794 21.2904 95.9404 21.2904C93.5534 21.2904 92.2514 23.6464 92.2514 25.9714V26.4364C92.2514 28.6994 93.6774 31.0554 96.0024 31.0554Z" fill="white"/>
<path d="M68.7754 39.2084V25.5064V17.9734H72.5574L72.5264 22.6854L72.9604 22.7164C73.5804 19.2754 75.4094 17.5394 78.3544 17.5394C82.5084 17.5394 84.9574 20.7634 84.9574 26.1574C84.9574 31.3964 82.6324 34.6824 78.5404 34.6824C75.5024 34.6824 73.8284 32.8224 73.0534 29.5674H72.5884C72.8984 31.3654 73.2394 33.2564 73.2394 34.8374V39.2084H68.7754ZM76.9594 31.0554C79.1294 31.0554 80.3384 29.0094 80.3384 26.1884C80.3384 23.2744 79.0364 21.2904 76.8974 21.2904C74.5104 21.2904 73.2084 23.6464 73.2084 25.9714V26.4364C73.2084 28.6994 74.6344 31.0554 76.9594 31.0554Z" fill="white"/>
<path d="M46.4023 34.2485L53.4083 13.7885H59.6703L66.6453 34.2485H61.8093L60.6313 30.2805H52.4473L51.2383 34.2485H46.4023ZM56.3533 17.3535L53.3773 27.1805H59.6703L56.7253 17.3535H56.3533Z" fill="white"/>
<g clip-path="url(#clip0_9_6297)">
<g filter="url(#filter0_i_9_6297)">
<path fill-rule="evenodd" clip-rule="evenodd" d="M39.0007 37.0569L21.0007 6.24854C21.0007 6.24854 18.4718 10.6708 16.9842 13.0293C15.4966 15.3879 16.5379 17.599 16.5379 17.599C16.5379 17.599 18.7486 21.5167 21.079 25.6138C20.4995 24.9494 19.7413 24.3289 18.7686 23.7903C13.7107 20.9895 9.84298 25.4118 9.84298 25.4118L3 37.057C3 37.057 8.05785 37.3519 13.562 37.2044C18.8593 37.0626 20.0229 35.5553 21.429 33.734C21.4839 33.6628 21.5391 33.5912 21.595 33.5192C22.4817 32.3771 23.1041 30.1353 22.3914 27.9174C23.9629 30.6706 25.4071 33.1801 26.0586 34.2561C27.8437 37.2043 29.9264 37.0569 29.9264 37.0569H30.9677H39.0007Z" fill="white"/>
</g>
</g>
<defs>
<filter id="filter0_i_9_6297" x="3" y="6.24854" width="36" height="32.9972" filterUnits="userSpaceOnUse" color-interpolation-filters="sRGB">
<feFlood flood-opacity="0" result="BackgroundImageFix"/>
<feBlend mode="normal" in="SourceGraphic" in2="BackgroundImageFix" result="shape"/>
<feColorMatrix in="SourceAlpha" type="matrix" values="0 0 0 0 0 0 0 0 0 0 0 0 0 0 0 0 0 0 127 0" result="hardAlpha"/>
<feOffset dy="3"/>
<feGaussianBlur stdDeviation="1"/>
<feComposite in2="hardAlpha" operator="arithmetic" k2="-1" k3="1"/>
<feColorMatrix type="matrix" values="0 0 0 0 1 0 0 0 0 1 0 0 0 0 1 0 0 0 0.25 0"/>
<feBlend mode="normal" in2="shape" result="effect1_innerShadow_9_6297"/>
</filter>
<clipPath id="clip0_9_6297">
<rect width="36" height="31" fill="white" transform="translate(3 6.24854)"/>
</clipPath>
</defs>
</svg>
